<?xml version="1.0" encoding="iso-8859-1"?>
<!-- Generator: Adobe Illustrator 16.0.0, SVG Export Plug-In . SVG Version: 6.00 Build 0)  -->
<!DOCTYPE svg PUBLIC "-//W3C//DTD SVG 1.1//EN" "http://www.w3.org/Graphics/SVG/1.1/DTD/svg11.dtd">
<svg version="1.1" id="Capa_1" xmlns="http://www.w3.org/2000/svg" xmlns:xlink="http://www.w3.org/1999/xlink" x="0px" y="0px"
	 width="531.282px" height="531.283px" viewBox="0 0 531.282 531.283" style="enable-background:new 0 0 531.282 531.283;"
	 xml:space="preserve">
<g>
	<g>
		<path d="M374.462,167.358l94.753,3.118l-44.676-83.619L379.86,3.24l-36.364,58.459C253.19,21.807,144.66,53.462,91.044,139.652
			l47.488,29.541c37.286-59.939,111.333-83.376,175.013-59.346l-33.838,54.395L374.462,167.358z"/>
		<path d="M522.6,348.589c15.546-51.541,10.091-106.051-15.361-153.489l-49.281,26.442c18.39,34.274,22.331,73.658,11.099,110.896
			c-8.451,28.019-24.732,52.298-46.877,70.437l-30.304-56.48l-49.938,80.59l-49.937,80.584l94.759,2.954l94.759,2.954
			l-32.538-60.646C484.088,427.153,509.817,390.965,522.6,348.589z"/>
		<path d="M161.891,424.927c-19.742-21.605-32.26-48.022-36.503-76.33l64.031,2.887l-43.658-84.156l-43.655-84.152l-51.053,79.882
			L0,342.944l68.753,3.101c4.083,43.305,21.995,83.934,51.852,116.608c36.313,39.742,85.93,62.965,139.708,65.39l2.521-55.87
			C223.977,470.42,188.128,453.642,161.891,424.927z"/>
	</g>
</g>
<g>
</g>
<g>
</g>
<g>
</g>
<g>
</g>
<g>
</g>
<g>
</g>
<g>
</g>
<g>
</g>
<g>
</g>
<g>
</g>
<g>
</g>
<g>
</g>
<g>
</g>
<g>
</g>
<g>
</g>
</svg>
